# xmcd CD database file
#
# Track frame offsets:
#	150
#	15306
#	32461
#	41771
#	58295
#	69033
#	81420
#	96629
#	111043
#	123210
#	140793
#	154833
#	176579
#	187279
#	198504
#	208526
#	222233
#	232524
#	242585
#	255482
#	271506
#	286209
#	297093
#	309603
#	318685
#	327552
#	339655
#
# Disc length: 4772 seconds
#
# Revision: 1
# Processed by: cddbd v1.5.2PL0 Copyright (c) Steve Scherf et al.
# Submitted via: CDex 1.70beta2
#
DISCID=9112a21b
DTITLE=Baden Powell - Baden In Prelude
DYEAR=2011
DGENRE=Jazz
TTITLE0=Encontro com a Saudade
TTITLE1=Samba de Nos Dois
TTITLE2=Se Foi Passado
TTITLE3=Gostar de Ninguem
TTITLE4=So de Mentirinha
TTITLE5=Ponto Final
TTITLE6=Cancao Do Amor Sem Fim
TTITLE7=No Mundo da Lua
TTITLE8=Gosto Do Seu Ihar
TTITLE9=Sem Voce
TTITLE10=Segue a Vida Em Paz
TTITLE11=Lagrima - Alaide Costa - 
TTITLE12=Ideias Erradas - Lucio Alves -
TTITLE13=A Noite Do Meu Bem - 
TTITLE14=Estrada Do Sol
TTITLE15=Castigo
TTITLE16=Noite de Paz
TTITLE17=Vou Chorar
TTITLE18=Por Causa de Voce
TTITLE19=Fim de Caso
TTITLE20=Pela Rua
TTITLE21=Quem Soum Eu
TTITLE22=Solidao
TTITLE23=Cancao Da Tristeza
TTITLE24=Cidade Do Interior
TTITLE25=Teimoso
TTITLE26=Eu e o Rio
EXTD=YEAR: 2011
EXTT0=
EXTT1=
EXTT2=
EXTT3=
EXTT4=
EXTT5=
EXTT6=
EXTT7=
EXTT8=
EXTT9=
EXTT10=
EXTT11=
EXTT12=
EXTT13=
EXTT14=
EXTT15=
EXTT16=
EXTT17=
EXTT18=
EXTT19=
EXTT20=
EXTT21=
EXTT22=
EXTT23=
EXTT24=
EXTT25=
EXTT26=
PLAYORDER=
